<?xml version="1.0" encoding="UTF-8"?>
<svg xmlns="http://www.w3.org/2000/svg" viewBox="0 0 1200 630" width="1200" height="630">
  <defs>
    <linearGradient id="g87063" x1="92.4024048078213%" y1="23.504036788339754%" x2="7.5975951921787015%" y2="76.49596321166024%">
      <stop offset="0%" stop-color="#DC2626"/>
      <stop offset="100%" stop-color="#B91C1C"/>
    </linearGradient>
  </defs>
  <rect width="1200" height="630" fill="url(#g87063)"/>
  <path d="M 80 299.9434482026845 L 80 299.9434482026845 L 88 299.9434482026845 L 96 299.9434482026845 L 104 299.9434482026845 L 112 299.9434482026845 L 120 299.9434482026845 L 128 299.9434482026845 L 136 299.9434482026845 L 144 299.9434482026845 L 152 299.9434482026845 L 160 299.9434482026845 L 168 299.9434482026845 L 176 299.9434482026845 L 184 299.9434482026845 L 192 299.9434482026845 L 200 299.9434482026845 L 208 299.9434482026845 L 216 299.9434482026845 L 224 299.9434482026845 L 232 299.9434482026845 L 240 299.9434482026845 L 248 299.9434482026845 L 256 246.8697434567112 L 264 208.6733133881802 L 272 245.52615301824846 L 280 299.9434482026845 L 288 299.9434482026845 L 296 299.9434482026845 L 304 299.9434482026845 L 312 299.9434482026845 L 320 299.9434482026845 L 328 299.9434482026845 L 336 299.9434482026845 L 344 299.9434482026845 L 352 299.9434482026845 L 360 299.9434482026845 L 368 299.9434482026845 L 376 299.9434482026845 L 384 299.9434482026845 L 392 299.9434482026845 L 400 299.9434482026845 L 408 299.9434482026845 L 416 299.9434482026845 L 424 299.9434482026845 L 432 299.9434482026845 L 440 299.9434482026845 L 448 299.9434482026845 L 456 299.9434482026845 L 464 299.9434482026845 L 472 299.9434482026845 L 480 299.9434482026845 L 488 299.9434482026845 L 496 299.9434482026845 L 504 268.19961448112156 L 512 214.00713512792703 L 520 237.12717968775317 L 528 280.9798419116984 L 536 299.9434482026845 L 544 299.9434482026845 L 552 299.9434482026845 L 560 299.9434482026845 L 568 299.9434482026845 L 576 299.9434482026845 L 584 299.9434482026845 L 592 299.9434482026845 L 600 299.9434482026845 L 608 299.9434482026845 L 616 299.9434482026845 L 624 299.9434482026845 L 632 299.9434482026845 L 640 299.9434482026845 L 648 299.9434482026845 L 656 299.9434482026845 L 664 299.9434482026845 L 672 299.9434482026845 L 680 299.9434482026845 L 688 299.9434482026845 L 696 299.9434482026845 L 704 299.9434482026845 L 712 299.9434482026845 L 720 299.9434482026845 L 728 299.9434482026845 L 736 299.9434482026845 L 744 299.9434482026845 L 752 281.7612350295688 L 760 239.4006585600144 L 768 215.44291218004915 L 776 263.7832270926783 L 784 299.9434482026845 L 792 299.9434482026845 L 800 299.9434482026845 L 808 299.9434482026845 L 816 299.9434482026845 L 824 299.9434482026845 L 832 299.9434482026845 L 840 299.9434482026845 L 848 299.9434482026845 L 856 299.9434482026845 L 864 299.9434482026845 L 872 299.9434482026845 L 880 299.9434482026845 L 888 299.9434482026845 L 896 299.9434482026845 L 904 299.9434482026845 L 912 299.9434482026845 L 920 299.9434482026845 L 928 299.9434482026845 L 936 299.9434482026845 L 944 299.9434482026845 L 952 299.9434482026845 L 960 299.9434482026845 L 968 299.9434482026845 L 976 299.9434482026845 L 984 299.9434482026845 L 992 299.9434482026845 L 1000 299.9434482026845 L 1008 241.6628592799812 L 1016 235.96887640003706 L 1024 251.45886353862434 L 1032 299.9434482026845 L 1040 299.9434482026845 L 1048 299.9434482026845 L 1056 299.9434482026845 L 1064 299.9434482026845 L 1072 299.9434482026845 L 1080 299.9434482026845 L 1088 299.9434482026845 L 1096 299.9434482026845 L 1104 299.9434482026845 L 1112 299.9434482026845 L 1120 299.9434482026845" fill="none" stroke="rgba(255,255,255,0.18)" stroke-width="2.5"/><rect x="280.7605887874961" y="147.17762855812907" width="24" height="80" rx="4" fill="rgba(255,255,255,0.1)"/><rect x="252.7605887874961" y="175.17762855812907" width="80" height="24" rx="4" fill="rgba(255,255,255,0.1)"/><path d="M 1000.6203741766512 285.7488492876291 C 1000.6203741766512 270.7488492876291 965.6203741766512 235.74884928762913 965.6203741766512 250.74884928762913 C 965.6203741766512 265.7488492876291 1000.6203741766512 280.7488492876291 1000.6203741766512 300.7488492876291 C 1000.6203741766512 280.7488492876291 1035.6203741766512 265.7488492876291 1035.6203741766512 250.74884928762913 C 1035.6203741766512 235.74884928762913 1000.6203741766512 270.7488492876291 1000.6203741766512 285.7488492876291 Z" fill="rgba(255,255,255,0.08)" stroke="rgba(255,255,255,0.15)" stroke-width="1.5"/><circle cx="939.3085087649524" cy="434.64008102659136" r="13.923631492536515" fill="none" stroke="rgba(255,255,255,0.09869408555328846)" stroke-width="1.5"/><circle cx="1037.3140859417617" cy="516.3646973855793" r="33.801663032965735" fill="none" stroke="rgba(255,255,255,0.11875465236604213)" stroke-width="1.5"/><circle cx="851.8216949421912" cy="540.9734949562699" r="12.398315378697589" fill="none" stroke="rgba(255,255,255,0.06459313344210386)" stroke-width="1.5"/><circle cx="201.68757357168943" cy="381.83214858174324" r="22.653606906998903" fill="none" stroke="rgba(255,255,255,0.12995332278311253)" stroke-width="1.5"/>
  <circle cx="764.1247065737844" cy="490.522353022825" r="2.4409672268666327" fill="rgba(255,255,255,0.07114036100218073)"/><circle cx="256.25608172267675" cy="86.50181738426909" r="1.224131393712014" fill="rgba(255,255,255,0.056807570853270595)"/><circle cx="727.1050932817161" cy="445.971285388805" r="2.0336459376849234" fill="rgba(255,255,255,0.06044179294956848)"/><circle cx="81.10132366418839" cy="464.11203926894814" r="1.905918708536774" fill="rgba(255,255,255,0.06681396574247628)"/><circle cx="504.71547693014145" cy="450.5520047969185" r="1.948588591068983" fill="rgba(255,255,255,0.030447314337361604)"/><circle cx="61.10943993553519" cy="78.52939593605697" r="2.5600341274403036" fill="rgba(255,255,255,0.07340694829588756)"/><circle cx="965.447847917676" cy="110.83714763168246" r="1.1100762677378953" fill="rgba(255,255,255,0.06918652139836923)"/><circle cx="845.4934171400964" cy="482.42044820683077" r="1.5692890207283199" fill="rgba(255,255,255,0.030947250996250657)"/><circle cx="999.3504825979471" cy="350.47004911350086" r="2.2688833037391305" fill="rgba(255,255,255,0.03537044595694169)"/><circle cx="449.8559759929776" cy="536.0876235016622" r="2.1559067401103675" fill="rgba(255,255,255,0.030998422619886695)"/><circle cx="1047.575263492763" cy="252.55229089641944" r="2.0235159378498793" fill="rgba(255,255,255,0.06732301957206802)"/><circle cx="9.790440928190947" cy="378.05808606091887" r="2.982007810845971" fill="rgba(255,255,255,0.07889919449342414)"/>
  <text x="600" y="335" font-family="system-ui, -apple-system, 'Segoe UI', sans-serif" font-size="68" font-weight="700" fill="rgba(0,0,0,0.15)" text-anchor="middle" letter-spacing="1">USMLE Step 3</text>
  <text x="600" y="332" font-family="system-ui, -apple-system, 'Segoe UI', sans-serif" font-size="68" font-weight="700" fill="white" text-anchor="middle" letter-spacing="1">USMLE Step 3</text>
  <g transform="translate(1140, 575)">
    <rect x="0" y="0" width="40" height="40" rx="8" fill="rgba(255,255,255,0.15)"/>
    <text x="20" y="29" font-family="sans-serif" font-weight="bold" font-size="24" fill="rgba(255,255,255,0.6)" text-anchor="middle">K</text>
  </g>
</svg>